<?xml version="1.0" standalone="no"?>
<!DOCTYPE svg PUBLIC "-//W3C//DTD SVG 20010904//EN"
 "http://www.w3.org/TR/2001/REC-SVG-20010904/DTD/svg10.dtd">
<svg version="1.0" xmlns="http://www.w3.org/2000/svg"
 width="260.000000pt" height="260.000000pt" viewBox="0 0 260.000000 260.000000"
 preserveAspectRatio="xMidYMid meet">
<metadata>
Created by potrace 1.14, written by Peter Selinger 2001-2017
</metadata>
<g transform="translate(0.000000,260.000000) scale(0.100000,-0.100000)"
fill="#000000" stroke="none">
<path d="M2454 2519 c-3 -5 0 -9 5 -9 6 0 10 -6 9 -12 -2 -7 5 -12 14 -12 10
1 15 -2 12 -7 -9 -14 -32 -10 -42 7 -8 15 -10 15 -15 0 -4 -9 -1 -15 6 -13 7
1 11 -6 9 -17 -3 -18 -2 -18 15 -6 17 14 17 14 0 -6 -17 -20 -17 -22 5 -38
l23 -17 -22 11 c-16 7 -23 7 -23 0 0 -5 -3 -9 -7 -9 -21 3 -33 -2 -27 -13 4
-6 3 -8 -4 -5 -15 10 -43 -3 -35 -17 3 -6 -5 0 -20 13 -22 20 -25 21 -22 5 2
-11 4 -23 4 -27 1 -5 6 -5 12 -1 6 3 3 -5 -6 -19 -9 -15 -14 -31 -11 -36 4 -5
1 -13 -5 -17 -8 -4 -9 -3 -5 4 4 7 2 12 -5 12 -9 0 -9 4 1 15 6 8 8 20 4 26
-5 8 -3 9 6 4 9 -5 11 -4 6 3 -12 19 -28 14 -21 -7 3 -10 -1 -24 -10 -31 -8
-7 -15 -18 -15 -24 0 -6 5 -4 10 4 8 13 10 13 10 -2 0 -17 -34 -34 -59 -29 -7
1 -11 -2 -8 -6 3 -5 1 -15 -4 -23 -7 -11 -8 -7 -5 12 3 15 0 31 -6 34 -7 5 -8
2 -3 -6 6 -9 1 -10 -16 -5 -18 5 -20 4 -9 -4 16 -11 24 -55 8 -45 -4 3 -5 11
-2 17 4 7 4 9 -1 5 -4 -4 -15 0 -23 10 -10 12 -9 8 2 -10 20 -34 20 -44 2 -29
-11 9 -16 9 -22 0 -4 -7 -3 -9 3 -6 5 3 16 -2 25 -12 14 -16 13 -19 -3 -29
-10 -7 -17 -17 -15 -24 1 -7 1 -10 -1 -5 -8 13 -23 7 -17 -7 3 -8 1 -16 -4
-20 -20 -12 -4 34 19 54 l24 21 -26 -15 c-14 -9 -29 -13 -34 -9 -4 5 -5 2 -1
-4 4 -7 3 -13 -3 -13 -6 0 -8 -6 -5 -14 3 -8 0 -17 -7 -22 -8 -4 -10 -3 -5 4
4 7 2 12 -4 12 -6 0 -8 6 -4 13 4 6 4 9 -1 5 -4 -4 -15 0 -23 10 -9 11 -9 8 2
-10 9 -16 14 -28 10 -28 -4 0 -1 -6 5 -14 9 -11 9 -16 0 -22 -7 -4 -9 -3 -5 4
3 6 2 13 -4 17 -6 4 -8 11 -5 16 4 5 1 9 -6 9 -7 0 -10 -11 -7 -29 3 -21 1
-28 -9 -24 -7 3 -10 9 -7 14 3 5 -2 6 -11 3 -14 -6 -14 -8 2 -21 15 -12 15
-14 2 -10 -13 4 -15 1 -11 -15 3 -15 7 -16 13 -6 6 9 8 6 6 -9 -1 -18 -4 -20
-16 -10 -12 10 -14 9 -8 -6 4 -11 3 -16 -3 -12 -12 7 -13 -7 -2 -21 4 -5 0 -1
-10 8 -19 21 -32 24 -25 5 3 -8 -3 -13 -14 -13 -12 0 -15 4 -9 10 6 6 10 17
10 26 -1 8 -10 -4 -21 -27 -11 -24 -25 -43 -31 -43 -9 0 -9 3 0 12 17 17 15
28 -5 28 -15 0 -16 -2 -3 -10 14 -9 13 -11 -9 -14 -5 0 -13 -5 -18 -10 -5 -5
-3 -6 5 -2 11 6 17 -5 13 -26 0 -5 7 -8 17 -9 16 0 16 -1 -1 -8 -10 -4 -18
-10 -18 -14 1 -4 -1 -7 -4 -7 -3 0 -8 0 -11 0 -4 0 -1 7 6 15 9 10 9 15 1 15
-6 0 -12 -4 -12 -10 -2 -11 -5 -25 -9 -37 -1 -5 -1 -12 0 -18 1 -5 -2 -7 -6
-3 -4 4 -14 2 -22 -5 -13 -9 -14 -9 -8 1 4 6 3 12 -3 12 -6 0 -8 8 -5 18 5 16
5 16 -6 -1 -6 -9 -16 -15 -21 -12 -5 4 -6 11 -3 17 4 6 2 8 -4 4 -6 -3 -9 -17
-6 -31 3 -20 1 -23 -13 -18 -17 7 -17 6 0 -11 15 -15 15 -21 5 -34 -11 -14
-10 -15 7 -9 18 7 19 6 3 -6 -10 -8 -15 -17 -11 -21 4 -4 -1 -4 -12 0 -18 7
-19 6 -5 -12 14 -17 14 -18 -2 -6 -14 11 -17 10 -21 -5 -4 -15 -5 -15 -6 -2 0
9 -8 19 -16 23 -13 4 -13 2 -5 -14 17 -31 11 -35 -15 -10 -13 12 -22 27 -18
33 3 6 1 7 -6 3 -9 -6 -9 -11 -1 -21 8 -10 8 -15 0 -20 -6 -4 -9 -13 -6 -21 4
-11 -1 -13 -18 -10 -21 4 -24 1 -20 -21 4 -22 3 -24 -10 -14 -12 10 -14 9 -12
-5 1 -9 11 -23 21 -30 15 -11 15 -14 4 -14 -8 0 -25 -9 -36 -20 -22 -20 -22
-20 -28 2 -6 16 -9 18 -16 7 -5 -8 -9 -10 -9 -6 0 5 -12 -1 -27 -13 -25 -20
-45 -89 -22 -74 6 3 8 13 5 21 -4 9 -2 12 7 7 8 -5 7 -2 -2 9 -8 10 -9 17 -3
17 20 0 24 -21 7 -46 -9 -13 -20 -22 -24 -19 -5 2 -14 -2 -21 -11 -7 -8 -19
-13 -27 -10 -9 4 -11 1 -7 -6 5 -8 1 -9 -12 -4 -14 5 -16 4 -7 -4 8 -9 6 -17
-8 -31 -24 -24 -37 -25 -15 0 14 15 14 20 3 30 -12 9 -14 7 -13 -11 0 -13 -4
-22 -9 -21 -6 1 -11 -10 -10 -25 0 -17 -5 -26 -13 -24 -8 1 -11 -2 -7 -8 3 -5
-1 -13 -9 -16 -9 -3 -16 -11 -16 -16 0 -6 8 -4 18 3 15 12 16 12 5 -2 -7 -9
-10 -19 -6 -23 4 -4 -1 -4 -12 0 -17 7 -18 6 -7 -8 10 -13 10 -18 1 -24 -7 -4
-9 -3 -5 4 3 6 2 13 -4 17 -6 4 -8 10 -5 15 3 5 -3 8 -14 7 -18 -1 -18 -2 -2
-26 9 -14 11 -22 5 -18 -14 8 -36 -15 -32 -34 2 -8 -3 -13 -9 -11 -7 1 -13 -2
-13 -8 0 -5 -5 -10 -11 -10 -6 0 -1 12 10 26 17 22 19 30 9 43 -7 9 -14 18
-16 21 -2 2 0 -11 3 -29 5 -29 4 -32 -9 -22 -12 10 -14 9 -11 -6 3 -22 -24
-55 -38 -46 -6 3 -7 1 -3 -5 4 -7 2 -12 -4 -12 -6 0 -8 -5 -4 -11 4 -8 9 -7
15 2 4 8 14 14 21 14 7 1 12 7 10 14 -1 7 2 10 8 6 6 -3 8 -11 5 -16 -4 -5 -1
-9 4 -9 6 0 11 -5 11 -11 0 -6 -5 -7 -12 -2 -16 9 -38 13 -38 6 0 -3 8 -12 18
-20 15 -13 15 -13 -5 -4 -16 8 -23 8 -26 -2 -4 -9 -6 -9 -6 1 -1 7 -6 10 -13
6 -6 -4 -8 -3 -4 4 3 6 2 13 -4 17 -5 3 -10 -2 -11 -12 0 -14 -2 -13 -10 6 -8
20 -11 22 -26 10 -9 -8 -14 -9 -10 -2 4 6 4 13 0 16 -5 2 -2 2 4 1 7 -2 13 3
13 11 0 8 -9 15 -19 15 -14 0 -19 6 -18 20 1 11 5 20 10 20 5 0 6 -7 3 -16 -3
-8 -2 -12 4 -9 15 9 12 19 -9 44 -11 13 -21 27 -23 31 -2 5 -16 11 -33 14 -16
2 -32 5 -35 5 -3 1 2 6 10 11 8 5 11 10 5 10 -5 0 -17 -5 -25 -10 -12 -8 -12
-10 -1 -10 8 0 12 -3 8 -6 -3 -3 -14 -1 -24 5 -10 6 -12 11 -5 11 18 0 15 17
-8 40 -11 11 -20 15 -20 9 0 -7 -10 1 -22 17 -13 16 -22 32 -20 36 1 5 -2 8
-8 8 -5 0 -7 8 -4 18 5 13 4 14 -4 3 -6 -8 -8 -20 -5 -28 3 -7 0 -13 -7 -13
-6 0 -8 5 -5 11 4 6 -2 13 -14 16 -17 4 -20 11 -16 36 5 26 4 28 -9 18 -12
-10 -14 -9 -9 7 3 11 12 19 21 17 10 -1 11 0 4 2 -7 3 -9 10 -5 16 4 7 -2 5
-12 -3 -17 -14 -18 -13 -12 3 4 11 3 16 -3 12 -6 -3 -10 1 -10 9 0 9 -4 16
-10 16 -5 0 -13 0 -17 0 -5 0 -8 -4 -8 -9 0 -5 -3 -12 -6 -15 -10 -11 -7 29 4
44 9 12 9 13 -3 3 -18 -16 -34 -17 -24 -1 4 7 3 8 -5 4 -7 -5 -9 -12 -3 -19 5
-7 9 -20 9 -29 0 -15 -3 -16 -16 -6 -26 20 -27 21 -8 15 21 -8 23 11 2 19 -13
5 -13 9 -3 22 11 13 10 15 -2 10 -11 -4 -16 1 -17 14 -2 15 1 17 11 9 9 -8 13
-7 13 4 0 8 -4 12 -8 9 -4 -2 -10 0 -14 6 -3 5 -1 10 4 10 6 0 11 4 11 9 0 10
-21 8 -51 -4 -10 -4 -19 0 -23 10 -3 9 -10 14 -15 10 -10 -6 -65 43 -66 60 -1
6 3 16 9 24 13 17 17 43 5 35 -5 -3 -7 -10 -4 -15 4 -5 -1 -9 -10 -9 -16 0
-18 29 -3 40 4 3 3 12 -2 20 -8 13 -10 12 -10 -2 0 -10 -5 -18 -11 -18 -5 0
-8 4 -5 9 4 5 -5 8 -19 7 -13 -2 -22 0 -20 5 3 4 1 10 -5 14 -6 4 -7 11 -4 17
4 7 2 8 -5 4 -6 -4 -9 -11 -6 -16 3 -4 -2 -11 -11 -14 -8 -3 -12 -11 -8 -17 5
-8 3 -9 -5 -4 -9 5 -9 11 -3 17 12 12 4 41 -8 33 -5 -3 -12 0 -16 6 -4 8 -3 9
4 5 7 -4 12 -2 12 5 0 8 5 8 18 -2 16 -13 16 -13 -1 7 -9 11 -14 24 -10 29 5
4 3 5 -4 1 -6 -3 -14 -2 -18 4 -3 5 -1 10 4 10 6 0 11 5 11 10 0 6 -11 4 -23
-5 -20 -13 -24 -13 -24 0 0 8 3 13 6 11 3 -2 12 3 20 11 11 12 10 14 -5 11
-11 -2 -24 -12 -31 -23 -12 -20 -12 -20 -13 0 0 12 6 27 13 35 6 8 2 6 -11 -5
-13 -11 -20 -25 -17 -34 4 -13 2 -12 -8 1 -8 10 -17 15 -20 11 -4 -3 -4 4 -2
16 3 16 0 21 -13 19 -9 -2 -17 4 -17 12 -1 8 -7 14 -14 12 -7 -1 -10 2 -7 7 4
5 -2 12 -11 14 -17 4 -17 5 -1 6 11 1 15 6 12 16 -4 8 -10 13 -15 10 -4 -3 -6
4 -4 16 2 12 2 19 -1 16 -4 -3 -18 5 -32 18 -13 13 -31 21 -38 18 -8 -3 -14 0
-14 7 0 6 -5 8 -10 5 -6 -4 -9 -1 -8 7 2 7 -4 12 -12 10 -8 -2 -11 0 -7 5 13
12 31 10 42 -5 9 -11 11 -9 11 7 0 11 -5 19 -11 18 -5 -1 -9 4 -7 11 1 8 -2
11 -7 8 -5 -4 -16 1 -24 9 -9 8 -22 15 -29 15 -10 0 -9 3 2 10 9 6 10 10 3 10
-27 0 -21 -20 12 -40 37 -23 49 -38 16 -21 -10 6 -22 7 -26 3 -5 -4 -4 -1 0 7
6 11 4 13 -8 8 -9 -3 -16 -3 -16 1 3 19 -2 23 -16 12 -8 -7 -12 -17 -8 -23 3
-6 1 -7 -6 -3 -9 6 -9 11 0 22 14 17 -2 19 -21 2 -12 -11 -12 -10 -2 3 11 15
7 29 -9 29 -5 0 -8 -495 -9 -1100 l0 -1100 1300 0 1300 0 0 1230 0 1231 -70
-2 c-39 -1 -73 -6 -76 -10z m31 -8 c3 -5 2 -12 -3 -15 -5 -3 -9 1 -9 9 0 17 3
19 12 6z m-2274 -403 c9 -17 8 -18 -10 -9 -11 6 -23 16 -26 21 -4 6 -11 8 -16
5 -5 -4 -9 -2 -9 4 0 14 23 20 38 8 7 -6 18 -19 23 -29z m1884 -68 c-3 -5 -12
-10 -18 -10 -7 0 -6 4 3 10 19 12 23 12 15 0z m-1805 -60 c0 -5 -2 -10 -4 -10
-3 0 -8 5 -11 10 -3 6 -1 10 4 10 6 0 11 -4 11 -10z m1670 -55 c-7 -8 -16 -15
-21 -15 -5 0 -1 8 9 18 20 22 31 19 12 -3z m-1552 2 c9 -10 6 -13 -13 -13 -27
0 -33 11 -12 19 6 3 13 6 13 6 1 1 6 -5 12 -12z m12 -63 c0 -8 -19 -13 -24 -6
-3 5 1 9 9 9 8 0 15 -2 15 -3z m42 -26 c-3 -14 -1 -19 6 -14 6 3 13 2 16 -3 7
-10 -20 -9 -30 2 -4 3 -4 13 -1 22 9 23 16 18 9 -7z m1452 4 c3 -5 -1 -9 -9
-9 -8 0 -15 4 -15 9 0 4 4 8 9 8 6 0 12 -4 15 -8z m-1385 -29 c2 -2 -3 -3 -11
-3 -9 0 -19 7 -22 16 -6 15 -4 15 11 3 10 -7 20 -15 22 -16z m1299 0 c0 -13
-5 -22 -11 -20 -15 5 -16 44 -1 44 6 0 12 -11 12 -24z m-1298 -48 c0 -8 -4
-15 -10 -15 -5 0 -7 7 -4 15 4 8 8 15 10 15 2 0 4 -7 4 -15z m1167 -62 c-4 -3
1 -12 11 -20 13 -10 14 -13 2 -11 -25 5 -36 38 -13 38 4 0 3 -3 0 -7z m-1023
-50 c-7 -38 -16 -45 -10 -8 5 36 5 35 10 35 3 0 2 -12 0 -27z m991 -14 c2 -24
-21 -37 -37 -21 -8 8 -4 9 12 5 20 -5 21 -4 11 14 -5 11 -7 23 -4 27 9 9 17
-1 18 -25z m-900 -97 c-17 -15 -18 -15 -6 0 7 9 9 23 5 30 -6 10 -4 11 7 0 11
-10 10 -15 -6 -30z m798 7 c5 -3 1 -9 -8 -12 -11 -5 -14 -3 -9 5 5 8 2 9 -11
4 -15 -5 -16 -4 -5 9 7 9 16 12 19 8 3 -4 10 -11 14 -14z m65 7 c-7 -8 -15
-12 -17 -11 -5 6 10 25 20 25 5 0 4 -6 -3 -14z m-834 -32 c3 -8 2 -12 -4 -9
-6 3 -10 10 -10 16 0 14 7 11 14 -7z m733 -68 c5 -4 4 -7 -2 -6 -5 1 -17 2
-25 1 -13 -1 -13 -2 0 -11 8 -5 10 -10 5 -10 -6 0 -16 5 -23 12 -9 9 -12 9
-12 -2 0 -7 -3 -10 -6 -7 -4 4 -2 13 4 20 12 14 46 16 59 3z m-73 -32 c3 -8 2
-12 -4 -9 -6 3 -10 10 -10 16 0 14 7 11 14 -7z m-54 -58 c0 -3 -4 -8 -10 -11
-5 -3 -10 -1 -10 4 0 6 5 11 10 11 6 0 10 -2 10 -4z m-455 -15 c3 -5 2 -12 -3
-15 -5 -3 -9 1 -9 9 0 17 3 19 12 6z m425 -32 c-14 -25 -17 -24 -14 4 3 30 3
29 14 22 7 -4 7 -13 0 -26z m-358 -28 c-5 -14 -4 -14 12 -1 16 13 20 12 32 -4
18 -25 7 -41 -15 -22 -10 9 -21 13 -24 10 -4 -4 -9 0 -13 9 -3 9 -13 14 -22
10 -13 -3 -14 -2 -4 4 21 15 41 11 34 -6z"/>
<path d="M170 2136 c0 -2 8 -10 18 -17 15 -13 16 -12 3 4 -13 16 -21 21 -21
13z"/>
<path d="M1030 1286 c0 -2 7 -9 15 -16 13 -11 14 -10 9 4 -5 14 -24 23 -24 12z"/>
<path d="M2429 2443 c0 -4 -2 -16 -4 -25 -2 -12 2 -15 13 -10 12 4 13 7 3 10
-10 3 -10 6 -1 12 9 5 9 9 1 14 -6 4 -11 4 -12 -1z"/>
<path d="M2372 2426 c4 -5 3 -19 -2 -32 -9 -22 -8 -23 15 -12 14 6 25 16 25
21 0 5 -8 3 -17 -4 -15 -12 -16 -12 -10 3 3 10 1 20 -6 24 -7 4 -9 4 -5 0z"/>
<path d="M2330 2416 c0 -2 8 -10 18 -17 15 -13 16 -12 3 4 -13 16 -21 21 -21
13z"/>
<path d="M60 2281 c0 -8 -6 -11 -16 -7 -14 6 -15 4 -4 -9 12 -15 14 -15 23 0
5 9 6 19 3 22 -3 4 -6 1 -6 -6z"/>
<path d="M2270 2274 c0 -14 -2 -15 -17 -3 -16 13 -17 12 -5 -3 16 -19 43 -13
35 8 -7 19 -13 18 -13 -2z"/>
<path d="M255 2092 c4 -9 8 -22 9 -28 1 -7 7 -18 14 -26 6 -8 8 -19 4 -23 -4
-5 -1 -5 6 -1 10 6 10 11 1 22 -7 8 -7 14 -1 14 5 0 13 7 16 16 5 13 4 14 -7
6 -15 -13 -27 -6 -27 15 0 9 5 11 13 7 6 -4 8 -3 4 1 -4 5 -15 10 -23 11 -11
2 -14 -3 -9 -14z"/>
<path d="M2016 2015 c-9 -26 -7 -32 5 -12 6 10 9 21 6 23 -2 3 -7 -2 -11 -11z"/>
<path d="M315 1990 c3 -5 8 -10 11 -10 2 0 4 5 4 10 0 6 -5 10 -11 10 -5 0 -7
-4 -4 -10z"/>
<path d="M1849 1879 c5 -6 7 -19 4 -28 -5 -13 -3 -14 8 -3 11 10 10 15 -4 27
-9 8 -13 10 -8 4z"/>
<path d="M1767 1786 c-4 -10 -1 -13 8 -9 8 3 12 9 9 14 -7 12 -11 11 -17 -5z"/>
<path d="M553 1753 c0 -7 2 -11 5 -8 3 2 13 -7 24 -20 11 -14 23 -23 28 -20 4
3 13 -2 20 -10 10 -12 16 -13 26 -4 14 12 9 33 -6 24 -5 -3 -12 -1 -15 5 -5 8
-11 8 -20 0 -9 -8 -15 -8 -20 0 -3 5 -1 10 5 10 6 0 8 5 4 11 -4 8 -9 7 -15
-2 -7 -12 -9 -11 -10 1 -1 8 -1 18 -1 21 1 3 -5 6 -12 6 -7 0 -13 -6 -13 -14z
m102 -45 c5 4 5 1 1 -6 -6 -10 -11 -10 -22 -1 -8 6 -14 14 -14 16 0 3 6 0 13
-6 8 -6 18 -7 22 -3z"/>
<path d="M1755 1750 c-4 -6 -11 -7 -17 -4 -7 4 -8 2 -4 -5 6 -9 12 -9 24 1 10
7 19 14 21 15 2 2 -1 3 -7 3 -6 0 -14 -5 -17 -10z"/>
<path d="M1646 1722 c-3 -5 1 -9 9 -9 8 0 12 4 9 9 -3 4 -7 8 -9 8 -2 0 -6 -4
-9 -8z"/>
<path d="M1583 1593 c1 -18 4 -20 19 -12 16 9 17 29 2 29 -3 0 -2 -4 1 -10 3
-5 2 -10 -4 -10 -5 0 -11 6 -14 13 -3 6 -4 2 -4 -10z"/>
<path d="M1505 1580 c-3 -6 1 -7 9 -4 18 7 21 14 7 14 -6 0 -13 -4 -16 -10z"/>
<path d="M833 1474 c0 -7 4 -11 8 -8 4 2 9 -2 12 -8 3 -7 5 -4 4 8 -1 22 -24
30 -24 8z"/>
<path d="M896 1462 c-8 -14 -1 -38 17 -56 9 -10 17 -14 17 -9 0 4 6 1 13 -7 7
-8 19 -21 28 -27 13 -10 16 -10 16 2 0 8 -3 13 -6 11 -3 -2 -11 2 -18 9 -9 9
-9 15 -2 17 7 2 5 9 -5 17 -14 12 -16 11 -9 -5 6 -17 5 -17 -10 -5 -9 7 -14
17 -11 22 3 5 0 8 -8 7 -8 -2 -12 4 -10 15 3 18 -3 23 -12 9z"/>
<path d="M1251 1304 c1 -21 16 -47 21 -38 4 5 0 18 -8 29 -8 10 -14 15 -13 9z"/>
<path d="M1125 1180 c3 -5 8 -10 11 -10 2 0 4 5 4 10 0 6 -5 10 -11 10 -5 0
-7 -4 -4 -10z"/>
</g>
</svg>
